<svg width="42" height="15" viewBox="0 0 42 15" fill="none" xmlns="http://www.w3.org/2000/svg">
    <path
        fillRule="evenodd"
        clipRule="evenodd"
        d="M33.842 14.6667C33.7453 14.5702 33.6686 14.4556 33.6163 14.3295C33.564 14.2034 33.537 14.0682 33.537 13.9316C33.537 13.795 33.564 13.6598 33.6163 13.5337C33.6686 13.4075 33.7453 13.293 33.842 13.1965L39.3371 7.70218L33.842 2.20783C33.7455 2.1113 33.6689 1.99671 33.6167 1.87058C33.5645 1.74446 33.5376 1.60928 33.5376 1.47276C33.5376 1.33625 33.5645 1.20107 33.6167 1.07495C33.6689 0.948823 33.7455 0.834224 33.842 0.737694C33.9385 0.641163 34.0531 0.56459 34.1792 0.512348C34.3053 0.460106 34.4404 0.433218 34.5769 0.433218C34.7134 0.433218 34.8485 0.460106 34.9746 0.512348C35.1007 0.56459 35.2153 0.641162 35.3118 0.737693L41.5398 6.9671C41.6364 7.06355 41.7131 7.17812 41.7655 7.30426C41.8178 7.43039 41.8447 7.56561 41.8447 7.70218C41.8447 7.83874 41.8178 7.97396 41.7655 8.1001C41.7131 8.22623 41.6364 8.3408 41.5398 8.43725L35.3118 14.6667C35.2154 14.7633 35.1008 14.8401 34.9747 14.8924C34.8486 14.9447 34.7134 14.9717 34.5769 14.9717C34.4404 14.9717 34.3052 14.9447 34.1791 14.8924C34.053 14.8401 33.9384 14.7633 33.842 14.6667Z"
        fill="#2091F9"
    />
    <path
        fillRule="evenodd"
        clipRule="evenodd"
        d="M39.7676 7.7025C39.7676 7.97792 39.5868 8.24206 39.2651 8.43681C38.9433 8.63156 38.5069 8.74097 38.0519 8.74097L2.02176 8.74097C1.56672 8.74097 1.13032 8.63156 0.808559 8.43681C0.486801 8.24206 0.306038 7.97792 0.306038 7.70251C0.306038 7.42709 0.486801 7.16295 0.808559 6.9682C1.13032 6.77345 1.56672 6.66404 2.02176 6.66404L38.0519 6.66404C38.5069 6.66404 38.9433 6.77345 39.2651 6.9682C39.5868 7.16295 39.7676 7.42709 39.7676 7.7025Z"
        fill="#2091F9"
    />
</svg>
