<svg width="50" height="51" viewBox="0 0 50 51" fill="none" xmlns="http://www.w3.org/2000/svg">
<path fill-rule="evenodd" clip-rule="evenodd" d="M18.9547 49.8989C32.3355 53.2394 45.9119 45.0937 49.2522 31.6936C52.5926 18.2934 44.4272 4.71765 31.0463 1.39695C17.6459 -1.94348 4.08923 6.20222 0.748997 19.6022C-2.59143 32.9829 5.55427 46.5587 18.9547 49.8989ZM31.3953 16.2237C34.8718 17.4151 37.3914 19.212 36.9031 22.5323C36.5515 24.9542 35.2039 26.1456 33.3875 26.5558C35.8484 27.8448 37.0984 29.8175 35.907 33.2159C34.4422 37.4542 30.9265 37.8058 26.239 36.9269L25.1062 41.4777L22.3718 40.7941L23.4851 36.3019C22.782 36.1261 22.0398 35.9308 21.2976 35.7355L20.1648 40.2472L17.4304 39.5636L18.5632 35.0128C18.1938 34.9121 17.8244 34.8177 17.4513 34.7225C17.1734 34.6515 16.8935 34.58 16.6101 34.505L13.0359 33.6066L14.4031 30.462C14.4031 30.462 16.4148 30.9894 16.3953 30.9503C17.157 31.1456 17.5085 30.6378 17.6453 30.3058L19.4421 23.1183C19.5398 23.1573 19.6375 23.1769 19.7351 23.1964C19.6321 23.1449 19.5442 23.1236 19.4714 23.1059C19.4614 23.1035 19.4516 23.1011 19.4421 23.0987L20.7312 17.962C20.7703 17.3761 20.575 16.6339 19.4617 16.3605C19.5007 16.3409 17.4695 15.8722 17.4695 15.8722L18.1921 12.9425L21.9812 13.88V13.8995C22.5476 14.0362 23.1335 14.173 23.739 14.3097L24.8523 9.81748L27.5867 10.5011L26.4929 14.9151C27.2351 15.0714 27.9773 15.2472 28.7 15.423L29.7937 11.0284L32.5281 11.712L31.3953 16.2237ZM22.6954 32.5463C24.9152 33.1379 29.859 34.4555 30.6336 31.3214C31.4394 28.1332 26.7147 27.0661 24.3932 26.5417C24.1264 26.4814 23.8913 26.4283 23.7 26.38L22.196 32.4152C22.3404 32.4516 22.5082 32.4964 22.6954 32.5463ZM24.8413 23.7228C26.6973 24.2242 30.7754 25.3258 31.4929 22.4737C32.2109 19.5842 28.2812 18.7046 26.3488 18.272C26.126 18.2221 25.9298 18.1782 25.7703 18.1378L24.4031 23.6066C24.529 23.6384 24.6764 23.6782 24.8413 23.7228Z" fill="url(#paint0_linear_106_112)"/>
<defs>
<linearGradient id="paint0_linear_106_112" x1="2.98023e-06" y1="50.6479" x2="50" y2="0.647931" gradientUnits="userSpaceOnUse">
<stop stop-color="#FA9A27"/>
<stop offset="1" stop-color="#FCCC35"/>
</linearGradient>
</defs>
</svg>
