<svg width="21" height="10" viewBox="0 0 21 10" fill="none" xmlns="http://www.w3.org/2000/svg">
    <path
        d="M10.1379 9.99662C9.79957 9.99727 9.47169 9.88108 9.21117 9.66822L0.523098 2.52905C0.22739 2.2867 0.0414294 1.93843 0.00612727 1.56087C-0.0291749 1.18332 0.0890726 0.807395 0.334856 0.515808C0.58064 0.22422 0.933826 0.0408521 1.31672 0.0060419C1.69961 -0.0287683 2.08084 0.0878306 2.37655 0.330189L10.1379 6.72688L17.8992 0.558643C18.0474 0.440039 18.2178 0.351468 18.4007 0.298022C18.5837 0.244576 18.7755 0.227308 18.9652 0.24721C19.155 0.267113 19.3388 0.323794 19.5063 0.413995C19.6737 0.504197 19.8214 0.626141 19.9409 0.772818C20.0736 0.91963 20.174 1.09186 20.2359 1.27873C20.2979 1.4656 20.3201 1.66307 20.301 1.85877C20.282 2.05447 20.2222 2.24419 20.1253 2.41604C20.0285 2.58789 19.8967 2.73817 19.7382 2.85745L11.0501 9.75389C10.7821 9.93311 10.461 10.0186 10.1379 9.99662Z"
        fill="#5092C5" />
</svg>
