<svg width="6" height="14" viewBox="0 0 6 14" fill="none" xmlns="http://www.w3.org/2000/svg">
    <path
        d="M5.99797 7.00955C5.99836 7.21254 5.92865 7.40927 5.80093 7.56558L1.51743 12.7784C1.37202 12.9559 1.16306 13.0674 0.936524 13.0886C0.70999 13.1098 0.484437 13.0388 0.309485 12.8914C0.134532 12.7439 0.0245113 12.532 0.00362514 12.3023C-0.017261 12.0725 0.0526984 11.8438 0.198113 11.6664L4.03613 7.00955L0.335186 2.35274C0.264023 2.26387 0.210881 2.16161 0.178813 2.05185C0.146745 1.94208 0.136385 1.82698 0.148326 1.71314C0.160268 1.5993 0.194276 1.48898 0.248397 1.38851C0.302518 1.28804 0.375685 1.19942 0.463691 1.12772C0.551778 1.04815 0.655119 0.987894 0.767238 0.950716C0.879357 0.913537 0.99784 0.900242 1.11526 0.911661C1.23268 0.923079 1.34652 0.958966 1.44963 1.01708C1.55273 1.07518 1.6429 1.15426 1.71447 1.24935L5.85233 6.4622C5.95986 6.623 6.01114 6.81571 5.99797 7.00955Z"
        fill="#5092C5" />
</svg>
