<svg width="22" height="22" viewBox="0 0 22 22" fill="none" xmlns="http://www.w3.org/2000/svg">
    <path
        d="M3.2998 5.50005C3.2998 4.91657 3.53159 4.35699 3.94417 3.94441C4.35675 3.53183 4.91633 3.30005 5.4998 3.30005H13.1998C13.7833 3.30005 14.3429 3.53183 14.7554 3.94441C15.168 4.35699 15.3998 4.91657 15.3998 5.50005V13.2H18.6998V15.4C18.6998 16.2753 18.3521 17.1146 17.7333 17.7335C17.1144 18.3524 16.275 18.7 15.3998 18.7H6.5998C5.72459 18.7 4.88522 18.3524 4.26635 17.7335C3.64748 17.1146 3.2998 16.2753 3.2998 15.4V5.50005ZM15.3998 14.3V17.6C15.9833 17.6 16.5429 17.3683 16.9554 16.9557C17.368 16.5431 17.5998 15.9835 17.5998 15.4V14.3H15.3998ZM14.2998 17.6V5.50005C14.2998 5.20831 14.1839 4.92852 13.9776 4.72223C13.7713 4.51594 13.4915 4.40005 13.1998 4.40005H5.4998C5.20807 4.40005 4.92828 4.51594 4.72199 4.72223C4.5157 4.92852 4.3998 5.20831 4.3998 5.50005V15.4C4.3998 15.9835 4.63159 16.5431 5.04417 16.9557C5.45675 17.3683 6.01633 17.6 6.5998 17.6H14.2998ZM6.5998 7.15005C6.5998 7.00418 6.65775 6.86429 6.7609 6.76114C6.86404 6.658 7.00394 6.60005 7.1498 6.60005H11.5498C11.6957 6.60005 11.8356 6.658 11.9387 6.76114C12.0419 6.86429 12.0998 7.00418 12.0998 7.15005C12.0998 7.29592 12.0419 7.43581 11.9387 7.53896C11.8356 7.6421 11.6957 7.70005 11.5498 7.70005H7.1498C7.00394 7.70005 6.86404 7.6421 6.7609 7.53896C6.65775 7.43581 6.5998 7.29592 6.5998 7.15005ZM6.5998 10.45C6.5998 10.3042 6.65775 10.1643 6.7609 10.0611C6.86404 9.95799 7.00394 9.90005 7.1498 9.90005H11.5498C11.6957 9.90005 11.8356 9.95799 11.9387 10.0611C12.0419 10.1643 12.0998 10.3042 12.0998 10.45C12.0998 10.5959 12.0419 10.7358 11.9387 10.839C11.8356 10.9421 11.6957 11 11.5498 11H7.1498C7.00394 11 6.86404 10.9421 6.7609 10.839C6.65775 10.7358 6.5998 10.5959 6.5998 10.45ZM6.5998 13.75C6.5998 13.6042 6.65775 13.4643 6.7609 13.3611C6.86404 13.258 7.00394 13.2 7.1498 13.2H9.3498C9.49567 13.2 9.63557 13.258 9.73871 13.3611C9.84186 13.4643 9.89981 13.6042 9.89981 13.75C9.89981 13.8959 9.84186 14.0358 9.73871 14.139C9.63557 14.2421 9.49567 14.3 9.3498 14.3H7.1498C7.00394 14.3 6.86404 14.2421 6.7609 14.139C6.65775 14.0358 6.5998 13.8959 6.5998 13.75Z"
        fill="#5092C5" />
</svg>
