<svg width="30" height="19" viewBox="0 0 30 19" fill="none" xmlns="http://www.w3.org/2000/svg">
    <path
        d="M0 17.074C0 16.7425 0.131696 16.4245 0.366117 16.1901C0.600537 15.9557 0.918479 15.824 1.25 15.824H8.75C9.08152 15.824 9.39946 15.9557 9.63388 16.1901C9.8683 16.4245 10 16.7425 10 17.074C10 17.4055 9.8683 17.7234 9.63388 17.9579C9.39946 18.1923 9.08152 18.324 8.75 18.324H1.25C0.918479 18.324 0.600537 18.1923 0.366117 17.9579C0.131696 17.7234 0 17.4055 0 17.074ZM0 9.57397C0 9.24245 0.131696 8.92451 0.366117 8.69009C0.600537 8.45567 0.918479 8.32397 1.25 8.32397H18.75C19.0815 8.32397 19.3995 8.45567 19.6339 8.69009C19.8683 8.92451 20 9.24245 20 9.57397C20 9.9055 19.8683 10.2234 19.6339 10.4579C19.3995 10.6923 19.0815 10.824 18.75 10.824H1.25C0.918479 10.824 0.600537 10.6923 0.366117 10.4579C0.131696 10.2234 0 9.9055 0 9.57397ZM0 2.07397C0 1.74245 0.131696 1.42451 0.366117 1.19009C0.600537 0.955671 0.918479 0.823975 1.25 0.823975H28.75C29.0815 0.823975 29.3995 0.955671 29.6339 1.19009C29.8683 1.42451 30 1.74245 30 2.07397C30 2.4055 29.8683 2.72344 29.6339 2.95786C29.3995 3.19228 29.0815 3.32397 28.75 3.32397H1.25C0.918479 3.32397 0.600537 3.19228 0.366117 2.95786C0.131696 2.72344 0 2.4055 0 2.07397Z"
        fill="black" fillOpacity="0.61" />
</svg>
